HIERARCHY
ROOT Hips
{
	OFFSET -3.958830 18.904000 13.208200
	CHANNELS 6 Xposition Yposition Zposition Zrotation Yrotation Xrotation 
	JOINT LHipJoint
	{
		OFFSET 0.000000 0.000000 0.000000
		CHANNELS 3 Zrotation Yrotation Xrotation
		JOINT LeftUpLeg
		{
			OFFSET 1.800000 -1.400000 0.085000
			CHANNELS 3 Zrotation Yrotation Xrotation
			JOINT LeftLeg
			{
				OFFSET 2.215000 -6.000000 0.000000
				CHANNELS 3 Zrotation Yrotation Xrotation
				JOINT LeftFoot
				{
					OFFSET 2.500000 -6.900000 0.000000
					CHANNELS 3 Zrotation Yrotation Xrotation
					JOINT LeftToeBase
					{
						OFFSET 0.200000 -0.500000 1.950000
						CHANNELS 3 Zrotation Yrotation Xrotation
						End Site
						{
							OFFSET 0.000000 0.000000 0.000000
						}
					}
				}
			}
		}
	}
	JOINT RHipJoint
	{
		OFFSET 0.000000 0.000000 0.000000
		CHANNELS 3 Zrotation Yrotation Xrotation
		JOINT RightUpLeg
		{
			OFFSET -1.800000 -1.400000 0.085000
			CHANNELS 3 Zrotation Yrotation Xrotation
			JOINT RightLeg
			{
				OFFSET -2.215000 -6.000000 0.000000
				CHANNELS 3 Zrotation Yrotation Xrotation
				JOINT RightFoot
				{
					OFFSET -2.500000 -6.900000 0.000000
					CHANNELS 3 Zrotation Yrotation Xrotation
					JOINT RightToeBase
					{
						OFFSET -0.200000 -0.500000 1.950000
						CHANNELS 3 Zrotation Yrotation Xrotation
						End Site
						{
							OFFSET 0.000000 0.000000 0.000000
						}
					}
				}
			}
		}
	}
	JOINT LowerBack
	{
		OFFSET 0.000000 0.000000 0.000000
		CHANNELS 3 Zrotation Yrotation Xrotation
		JOINT Spine
		{
			OFFSET -0.087000 1.940000 -0.288900
			CHANNELS 3 Zrotation Yrotation Xrotation
			JOINT Spine1
			{
				OFFSET 0.000000 1.950000 0.060000
				CHANNELS 3 Zrotation Yrotation Xrotation
				JOINT Neck
				{
					OFFSET 0.000000 0.000000 0.000000
					CHANNELS 3 Zrotation Yrotation Xrotation
					JOINT Neck1
					{
						OFFSET 0.000000 1.600000 0.340000
						CHANNELS 3 Zrotation Yrotation Xrotation
						JOINT Head
						{
							OFFSET 0.000000 1.667000 -0.240000
							CHANNELS 3 Zrotation Yrotation Xrotation
							End Site
							{
								OFFSET 0.000000 0.000000 0.000000
							}
						}
					}
				}
				JOINT LeftShoulder
				{
					OFFSET 0.000000 0.000000 0.000000
					CHANNELS 3 Zrotation Yrotation Xrotation
					JOINT LeftArm
					{
						OFFSET 2.700000 1.550000 -0.730000
						CHANNELS 3 Zrotation Yrotation Xrotation
						JOINT LeftForeArm
						{
							OFFSET 5.450000 0.000000 0.000000
							CHANNELS 3 Zrotation Yrotation Xrotation
							JOINT LeftHand
							{
								OFFSET 3.450000 0.000000 0.000000
								CHANNELS 3 Zrotation Yrotation Xrotation
								JOINT LeftHandIndex1
								{
									OFFSET 0.750000 0.000000 0.000000
									CHANNELS 3 Zrotation Yrotation Xrotation
									End Site
									{
										OFFSET 0.000000 0.000000 0.000000
									}
								}
							}
						}
					}
				}
				JOINT RightShoulder
				{
					OFFSET 0.000000 0.000000 0.000000
					CHANNELS 3 Zrotation Yrotation Xrotation
					JOINT RightArm
					{
						OFFSET -2.700000 1.550000 -0.730000
						CHANNELS 3 Zrotation Yrotation Xrotation
						JOINT RightForeArm
						{
							OFFSET -5.450000 0.000000 0.000000
							CHANNELS 3 Zrotation Yrotation Xrotation
							JOINT RightHand
							{
								OFFSET -3.450000 0.000000 0.000000
								CHANNELS 3 Zrotation Yrotation Xrotation
								JOINT RightHandIndex1
								{
									OFFSET -0.750000 0.000000 0.000000
									CHANNELS 3 Zrotation Yrotation Xrotation
									End Site
									{
										OFFSET 0.000000 0.000000 0.000000
									}
								}
							}
						}
					}
				}
			}
		}
	}
}
MOTION
Frames: 10
Frame Time: 0.016667
8.659710 15.323070 -0.394670 0.953884 24.158868 7.204868 -15.275483 11.069710 5.068864 12.231682 -5.737812 -44.767568 0.984744 13.721556 57.479996 0.956502 10.216671 0.746321 0.181950 0.142970 0.234710 18.257339 -11.534650 1.633638 -34.412665 2.481917 -3.371771 6.271237 -11.028789 29.357566 -0.607445 -6.473759 1.834872 0.007520 -0.198380 0.068600 -3.851029 1.479166 -8.588968 2.736616 6.236893 16.015794 -10.488497 7.008198 -4.089516 5.966510 0.526915 -5.776670 3.067852 2.428118 47.635448 1.284170 2.672610 -7.213050 -26.989112 9.424257 -2.217248 -56.191137 16.554515 -14.916062 -8.647240 -16.669840 -0.477134 -3.486351 2.732923 0.357960 -0.186190 0.276430 -0.026530 14.316837 -6.082404 4.336170 44.644260 -5.984779 -4.524941 111.112980 52.243203 58.994865 2.639046 -1.870986 0.018570 0.022300 -0.052440 -0.100510 
8.532850 15.321540 -0.352000 -0.191820 22.172055 7.108263 -15.395972 11.132963 5.200731 15.962219 -4.387196 -44.798040 -1.494577 15.530136 56.195948 0.972523 10.464265 0.652619 0.146430 0.097160 0.250290 18.175510 -11.414200 1.447162 -33.813861 1.939697 -5.264934 3.289933 -9.222754 27.206691 -0.487291 -5.830837 2.056304 -0.021790 -0.199640 0.073080 -3.479166 1.127731 -8.538593 0.373348 5.699676 16.115117 -8.708478 6.136681 -4.621551 6.198696 2.057268 -5.595973 6.193334 2.634329 45.949884 0.882430 5.269260 -6.547970 -24.813826 10.998028 -2.199436 -58.070663 18.019924 -16.093801 -11.118367 -16.211501 -0.452371 -3.533521 2.690939 0.361630 -0.163450 0.273930 -0.047740 12.249004 -8.924883 3.966734 45.436779 -8.366841 -5.726100 106.976480 51.337309 54.193078 2.605104 -1.916998 0.001380 -0.000200 -0.047820 -0.128410 
8.396940 15.326630 -0.305890 -1.381830 20.368685 6.991249 -15.512709 11.184286 5.321291 19.638881 -2.999720 -44.280190 -3.968774 17.025780 54.147138 0.968029 10.582016 0.597113 0.112390 0.056020 0.264860 18.108007 -11.261477 1.285146 -32.885571 1.446580 -7.155165 0.895663 -7.816366 25.415470 -0.400386 -5.284480 2.248911 -0.051700 -0.203560 0.080740 -3.147671 0.756174 -8.475325 -1.792516 5.221541 16.043745 -6.842941 5.352642 -4.529731 6.308765 3.522586 -5.705013 8.908250 2.745998 44.223092 0.473760 7.524680 -6.270620 -21.970340 12.262462 -2.011664 -60.146591 18.827992 -17.110819 -14.107010 -14.866504 -0.528884 -3.594900 2.643594 0.364520 -0.143780 0.275330 -0.070590 9.725034 -11.366957 3.810607 46.892753 -10.552313 -6.937838 103.375704 49.127417 48.748478 2.547020 -1.974930 -0.009510 -0.023410 -0.042100 -0.152490 
8.246500 15.332750 -0.251310 -2.277494 18.807051 7.189273 -15.621895 11.190764 5.471203 23.229830 -1.733864 -43.466827 -6.805226 18.449344 51.553413 0.972323 10.684259 0.563913 0.064840 0.003880 0.245150 18.064693 -11.075105 1.130689 -31.867607 1.024006 -9.405409 -1.174739 -6.691659 24.298191 -0.314968 -4.839286 2.414833 -0.080480 -0.172620 0.084750 -2.874337 0.389175 -8.415636 -3.835857 4.597358 15.839561 -5.145971 4.392776 -4.367543 6.193109 4.456171 -5.493402 10.375837 2.995097 41.835405 0.502160 8.879500 -5.624930 -19.340320 14.129621 -1.955724 -61.632240 20.013470 -18.276076 -17.944563 -14.094193 -0.578831 -3.654242 2.625021 0.344020 -0.109520 0.250110 -0.081520 7.769597 -14.100882 3.432475 47.895816 -12.723047 -7.946621 101.223809 46.531914 44.442716 2.483951 -2.024850 -0.025370 -0.033350 -0.024900 -0.157460 
8.070950 15.337280 -0.193520 -3.088237 17.630882 7.327648 -15.719916 11.178786 5.607175 26.891689 -0.486940 -42.100593 -9.833142 19.420375 47.844860 0.937431 10.609825 0.578356 0.038870 -0.023670 0.235900 18.036354 -10.869227 1.018396 -30.681393 0.641687 -11.519372 -2.292105 -5.991590 23.577557 -0.259399 -4.496349 2.542554 -0.098270 -0.156780 0.091140 -2.652853 0.034163 -8.368569 -5.846489 3.938172 15.850561 -3.767010 3.385414 -4.058904 5.998239 5.165311 -5.270211 11.277354 3.186609 39.213234 0.769880 9.861360 -6.102050 -16.135431 16.629153 -1.926372 -62.823589 21.424554 -19.628417 -22.331857 -14.135181 -0.509082 -3.685186 2.627463 0.338530 -0.091680 0.240120 -0.088180 5.305320 -17.299337 3.191177 48.673173 -15.513004 -8.927751 100.878798 43.706361 41.347882 2.406616 -2.070486 -0.034120 -0.042370 -0.016840 -0.163060 
7.890670 15.345860 -0.127400 -3.976370 16.269972 7.334291 -15.803770 11.196132 5.701060 30.320124 0.696934 -40.178342 -12.314718 19.916554 44.092182 0.905192 10.489010 0.617763 0.013060 -0.050890 0.216680 18.012438 -10.679431 0.936593 -29.143575 0.383862 -13.284288 -3.123060 -5.350087 22.687869 -0.203383 -4.170168 2.674956 -0.112020 -0.127290 0.092480 -2.470777 -0.302006 -8.323157 -7.476535 3.135000 15.477400 -2.735777 2.259794 -3.598931 5.801149 5.552475 -5.087667 11.643302 3.445785 37.480770 1.207440 10.384270 -5.655760 -13.357523 18.758444 -1.794597 -63.581594 22.877551 -20.642358 -25.862794 -13.358489 -0.624020 -3.716578 2.628213 0.320530 -0.067830 0.219430 -0.084890 3.224902 -19.954951 2.950099 48.606485 -17.901730 -9.548515 101.723251 41.137452 39.354081 2.339336 -2.115731 -0.044260 -0.044550 -0.010850 -0.158810 
7.707520 15.364290 -0.050990 -4.838979 14.927370 7.281682 -15.859121 11.266806 5.691978 32.978475 1.631197 -37.879966 -13.757739 19.610584 40.236522 0.847964 10.207061 0.712008 -0.003540 -0.065770 0.176490 17.992858 -10.545092 0.903411 -27.454472 0.266050 -14.405360 -3.513791 -4.834337 21.559870 -0.150416 -3.897916 2.797352 -0.116170 -0.083520 0.096050 -2.347355 -0.579856 -8.246348 -8.769505 2.234851 14.699320 -1.831144 1.114938 -3.059846 5.383057 5.587457 -4.895968 11.331268 3.443384 36.088530 2.148110 9.820340 -4.656830 -11.255073 20.315039 -1.421614 -63.600857 24.697069 -21.462992 -29.349117 -12.530048 -0.809870 -3.728000 2.662141 0.286160 -0.040310 0.185990 -0.066060 2.187241 -21.750062 2.519956 47.359699 -19.365505 -9.598104 102.412842 39.043234 37.747206 2.290439 -2.164954 -0.045820 -0.046980 -0.006000 -0.136750 
7.518420 15.397870 0.013710 -5.451506 13.584563 7.028374 -15.892033 11.392083 5.614183 34.873110 2.195612 -35.404243 -14.423881 18.895414 36.785498 0.776265 9.867502 0.815766 -0.007690 -0.065720 0.160230 17.968844 -10.441784 0.931713 -25.935259 0.203539 -15.121141 -3.265726 -4.546563 20.328469 -0.117290 -3.666613 2.896050 -0.113180 -0.062520 0.095190 -2.258702 -0.861332 -8.199914 -9.669411 1.061808 14.036023 -1.888106 -0.241350 -2.376551 5.210435 5.336609 -4.838601 10.802224 4.213974 36.190629 2.533500 10.227930 -3.836790 -9.948481 20.890670 -0.936025 -63.102802 26.056996 -21.904189 -32.082793 -11.861648 -1.010097 -3.716886 2.698766 0.269610 -0.026050 0.171760 -0.055330 1.409489 -22.548228 2.144527 46.552298 -19.529797 -9.330752 102.662758 36.305356 35.210942 2.252928 -2.189971 -0.048030 -0.046730 -0.006490 -0.127060 
7.327940 15.443160 0.079710 -6.018147 12.463308 6.520752 -15.903158 11.601173 5.414386 35.884300 2.548522 -32.735596 -13.865186 17.635491 33.586095 0.666883 9.388149 0.953935 0.001420 -0.047880 0.163970 17.939440 -10.452846 0.955737 -24.336326 0.200963 -15.292773 -3.204465 -4.341929 19.972997 -0.104971 -3.541610 2.948560 -0.096470 -0.052680 0.099600 -2.197619 -1.064997 -8.081795 -10.312991 -0.020312 13.193093 -2.400946 -1.464337 -1.627341 5.407511 5.366962 -4.614905 11.122126 5.264818 36.871343 2.576940 11.398130 -3.150800 -9.171968 21.302549 -0.671199 -62.121608 26.706910 -21.736156 -33.430023 -11.169465 -1.203878 -3.715125 2.731484 0.256900 -0.009530 0.167560 -0.051850 0.495301 -23.436559 1.757592 45.678530 -18.721361 -8.443239 104.157392 35.623068 35.978900 2.212147 -2.240069 -0.048690 -0.048460 -0.009120 -0.127070 
7.143850 15.504520 0.132720 -6.509223 11.609281 6.107906 -15.902493 11.789890 5.234383 36.529897 2.634505 -30.380276 -13.286200 16.313458 30.392146 0.566917 8.898783 1.103957 0.012140 -0.031680 0.163990 17.914371 -10.476428 0.992599 -22.884714 0.197268 -15.317932 -2.828910 -4.297033 19.941737 -0.098587 -3.472201 2.981848 -0.081730 -0.046960 0.100990 -2.160827 -1.238044 -7.992719 -10.593623 -0.842153 12.645701 -3.026269 -2.328807 -1.042590 5.531268 5.131374 -4.467642 10.722110 5.602491 37.537781 2.552770 11.503280 -2.839750 -8.853262 21.439285 -0.633331 -60.492981 26.611300 -20.983699 -34.561941 -10.166860 -1.417990 -3.702384 2.772162 0.248290 -0.002690 0.163920 -0.046590 0.055754 -23.760945 1.728014 44.456877 -18.783245 -7.799930 105.657353 35.008694 36.528129 2.177506 -2.278208 -0.047270 -0.045480 -0.011310 -0.123400 
